<?xml version="1.0" encoding="UTF-8"?>
<svg version="1.1" xmlns="http://www.w3.org/2000/svg" width="1024" height="1024">
<path d="M0 0 C5.01518128 0.00232663 10.03035918 0.00255508 15.04554084 0.00148559 C16.13585432 0.00125574 16.13585432 0.00125574 17.24819433 0.00102125 C18.72672914 0.00070139 20.20526396 0.00037718 21.68379877 0.00004866 C35.3673429 -0.00276566 49.0508802 0.0004185 62.7344232 0.00584903 C74.40024526 0.01033547 86.06605738 0.00951815 97.73187927 0.00493027 C111.41829057 -0.00045006 125.10469601 -0.00251408 138.79110822 0.00054253 C140.25572053 0.00086096 141.72033283 0.00117533 143.18494514 0.00148559 C143.90484967 0.00163987 144.6247542 0.00179414 145.36647402 0.0019531 C150.3702397 0.00280628 155.37400156 0.00138211 160.37776664 -0.00099396 C167.12610257 -0.00412959 173.8744171 -0.00182364 180.62275222 0.0039003 C183.0742474 0.00520515 185.52574418 0.00487335 187.97723869 0.00263763 C242.86567829 -0.04275236 294.19496143 3.53457141 336.07636169 43.13530136 C336.83690856 43.84299667 337.59745544 44.55069198 338.38104919 45.27983261 C344.37310131 51.03344667 349.30516428 57.34686975 354.07636169 64.13530136 C354.69511169 65.00928573 355.31386169 65.88327011 355.95136169 66.78373886 C360.72483267 73.88001491 364.1125429 81.41877503 367.33026794 89.30912948 C367.95838529 90.84653714 368.60861233 92.37488508 369.26386169 93.90092636 C376.17191759 111.06312775 377.22849175 129.9529851 377.21680358 148.2124498 C377.21939109 149.83754874 377.22240531 151.46264704 377.22580699 153.08774448 C377.23383501 157.53402481 377.2356642 161.98028895 377.23640445 166.42657567 C377.23826235 171.22979275 377.24581334 176.03300157 377.25253967 180.83621383 C377.26609353 191.33029609 377.27214308 201.8243745 377.27655033 212.31846405 C377.27931768 218.87733455 377.28355591 225.43620358 377.2880545 231.99507309 C377.3002432 250.17298454 377.31054338 268.35089482 377.31392959 286.52881027 C377.31414916 287.69113739 377.31436872 288.8534645 377.31459494 290.05101366 C377.31481322 291.21603884 377.3150315 292.38106403 377.31525639 293.58139301 C377.31569985 295.94197314 377.31614641 298.30255326 377.31659606 300.66313339 C377.31681749 301.83404962 377.31703892 303.00496585 377.31726706 304.2113644 C377.32121316 323.17460813 377.33866325 342.1378134 377.36195559 361.10104228 C377.38570452 380.59416122 377.39813305 400.08726088 377.39929751 419.58039451 C377.40021226 430.51542549 377.40591425 441.45040632 377.42411712 452.38542343 C377.43956595 461.6984594 377.44461045 471.01142972 377.43637902 480.32447607 C377.43248944 485.06999941 377.43331878 489.81539075 377.44743637 494.5608976 C377.4602774 498.91741263 377.45888951 503.27369785 377.44684565 507.63021303 C377.44490616 509.19415627 377.44788471 510.75811638 377.45669002 512.32203604 C377.53485456 527.16168942 375.54582274 541.57470633 371.26386169 555.82280136 C371.00379333 556.70161972 370.74372497 557.58043808 370.47577575 558.4858873 C359.35455866 595.25700437 335.55025243 624.48033491 301.82636169 642.94780136 C282.43247348 653.0695941 262.21231809 657.03020922 240.55158142 657.6975267 C239.24158377 657.73909012 237.93158612 657.78065353 236.58189157 657.82347644 C222.11887517 658.25739872 207.65496688 658.27860459 193.18679145 658.26602603 C189.22775908 658.26371275 185.26873062 658.26728012 181.30969909 658.27000595 C173.60210516 658.27439975 165.89452109 658.27351637 158.18692682 658.27059331 C151.91494828 658.26831508 145.64297248 658.2680371 139.37099365 658.26911712 C138.02114082 658.26934697 138.02114082 658.26934697 136.64401824 658.26958147 C134.81477435 658.26990126 132.98553046 658.27022547 131.15628657 658.27055406 C114.09797634 658.27338977 97.03967154 658.27015132 79.9813622 658.26475369 C65.3958385 658.26028126 50.81032275 658.26106892 36.22479919 658.26567245 C19.20620074 658.27104155 2.18760699 658.27312165 -14.83099219 658.27006019 C-16.65026026 658.2697417 -18.46952832 658.26942733 -20.28879639 658.26911712 C-21.18347926 658.26896285 -22.07816213 658.26880857 -22.9999566 658.26864962 C-29.25672964 658.26779192 -35.51349965 658.26923101 -41.77027222 658.27159668 C-49.4054171 658.27442066 -57.04055172 658.27360191 -64.67569545 658.26831593 C-68.55904613 658.2657146 -72.44237979 658.26461224 -76.32573029 658.26796509 C-129.04639546 658.30946633 -171.59582688 653.35499431 -210.54863831 614.51811386 C-215.9302384 608.85061626 -220.35474008 602.8438421 -224.52568909 596.26127792 C-226.23557628 593.57421052 -227.84073062 591.21457275 -230.15020081 589.00639511 C-232.36132907 586.67350868 -232.37782358 585.2825395 -232.92363831 582.13530136 C-234.07020328 579.19513774 -235.39137044 576.33093113 -236.67363831 573.44780136 C-243.27119842 558.12671875 -246.8294235 542.65063715 -248.92363831 526.13530136 C-249.01282745 525.44697098 -249.10201658 524.75864059 -249.19390842 524.04945172 C-250.08716491 516.28924445 -250.06931858 508.5429087 -250.0640802 500.74391342 C-250.06666806 499.19321221 -250.06968238 497.64251166 -250.07308361 496.09181202 C-250.08110801 491.85094198 -250.08294062 487.6100889 -250.08368107 483.36921216 C-250.08553971 478.78674108 -250.09309125 474.20427863 -250.09981629 469.62181259 C-250.11336946 459.60871715 -250.11942012 449.59562572 -250.12382695 439.58252264 C-250.12659547 433.32043253 -250.13083401 427.05834395 -250.13533112 420.79625488 C-250.14752171 403.43158416 -250.15782023 386.06691466 -250.16120621 368.70223976 C-250.16142578 367.59187141 -250.16164534 366.48150305 -250.16187156 365.33748718 C-250.16208984 364.22456886 -250.16230812 363.11165054 -250.16253301 361.96500743 C-250.16297647 359.71008588 -250.16342303 357.45516432 -250.16387269 355.20024277 C-250.16409412 354.08174085 -250.16431554 352.96323893 -250.16454368 351.81084301 C-250.16848591 333.71493306 -250.18592328 315.61906352 -250.20923221 297.52316915 C-250.23301325 278.90917082 -250.24541119 260.29519269 -250.24657413 241.68117893 C-250.2474873 231.24450654 -250.25314855 220.80788675 -250.27139374 210.37122894 C-250.28688642 201.47814044 -250.29186178 192.58512081 -250.28365564 183.69202136 C-250.2797808 179.16448097 -250.28052117 174.63707885 -250.29471299 170.10955597 C-250.43932912 121.07420078 -243.26944387 79.42656355 -207.54863831 43.26030136 C-201.29811092 37.03864314 -194.75709781 31.74922476 -187.38848206 26.92045761 C-186.57508362 26.33135605 -185.76168519 25.74225448 -184.92363831 25.13530136 C-184.92363831 24.47530136 -184.92363831 23.81530136 -184.92363831 23.13530136 C-184.24816956 23.04635605 -183.57270081 22.95741073 -182.87676331 22.86577011 C-179.15929326 21.94623717 -176.02740674 20.2356816 -172.67363831 18.44780136 C-160.72964078 12.33114736 -148.63554142 8.32478742 -135.54863831 5.38530136 C-134.67715149 5.18654403 -133.80566468 4.98778671 -132.90776917 4.78300644 C-116.52218217 1.32005015 -99.81589624 0.7745955 -83.12847229 0.51860214 C-80.99923428 0.48067049 -78.86999714 0.44269047 -76.74076077 0.40466667 C-51.16267242 -0.02330968 -25.58091005 -0.01216428 0 0 Z " fill="#FEFCF3" transform="translate(447.9236383102834,176.86469864100218)"/>
<path d="M0 0 C7.16702321 0.83597473 14.33315723 1.67920761 21.49834114 2.53081131 C24.82829979 2.92637511 28.15853515 3.31905825 31.48933411 3.70751953 C113.38622502 13.26771618 201.49075106 35.39605647 255.72875977 102.65405273 C268 118.32836816 268 118.32836816 268 122 C268.66 122 269.32 122 270 122 C270.37318359 120.93265625 270.37318359 120.93265625 270.75390625 119.84375 C279.98480615 98.77762108 302.94255407 79.28053265 321 66 C321.57073242 65.57380371 322.14146484 65.14760742 322.72949219 64.70849609 C330.89553288 58.62196323 339.3232487 53.11361685 348.16162109 48.05273438 C349.89160545 47.06207136 351.6121656 46.05500258 353.33203125 45.046875 C405.50122523 15.7128825 472.75784955 4.85806943 531.89501953 0.45458984 C533.04455109 0.36833344 534.19408264 0.28207703 535.37844849 0.19320679 C536.24356049 0.12944855 537.10867249 0.06569031 538 0 C538.04689171 16.95159208 538.08207247 33.90316368 538.10362434 50.85480595 C538.11390089 58.72720074 538.12789123 66.59955504 538.15087891 74.47192383 C538.17092446 81.34005702 538.1837427 88.20816086 538.18817699 95.0763225 C538.19076563 98.70698112 538.19677282 102.33755583 538.21146011 105.96818733 C538.22779104 110.0388053 538.22797261 114.10928094 538.22705078 118.17993164 C538.23424133 119.36029999 538.24143188 120.54066833 538.24884033 121.75680542 C538.17765472 151.04812218 528.13056079 176.72489228 508 198 C507.31164062 198.7528125 506.62328125 199.505625 505.9140625 200.28125 C485.08802393 222.26859184 452.40112128 236.05592492 422.22982621 237.09544325 C418.91168325 237.13456358 415.59477398 237.14287389 412.27639771 237.14044189 C410.36796705 237.14489858 410.36796705 237.14489858 408.42098224 237.1494453 C404.9051114 237.15747257 401.38926101 237.15930247 397.87338209 237.16004276 C394.07490974 237.16190086 390.27644783 237.16945209 386.47798157 237.17617798 C378.17792609 237.18973266 369.87787546 237.19578189 361.57781076 237.20018864 C356.38817525 237.2029566 351.19854158 237.20719502 346.00890732 237.21169281 C331.6209964 237.22388304 317.23308695 237.23418199 302.84517097 237.2375679 C301.92511774 237.23778747 301.0050645 237.23800703 300.05713087 237.23823325 C298.67386739 237.23856067 298.67386739 237.23856067 297.26265919 237.2388947 C295.39418165 237.23933816 293.5257041 237.23978472 291.65722656 237.24023438 C290.73040974 237.2404558 289.80359292 237.24067723 288.84869073 237.24090537 C273.84929584 237.24484879 258.84994966 237.26228995 243.85057355 237.2855939 C228.42556217 237.30936423 213.00057517 237.32177238 197.57554519 237.32293582 C188.92531738 237.32384953 180.27515301 237.32952464 171.62494278 237.34775543 C164.25519675 237.36323349 156.88553377 237.3682319 149.51577456 237.36001733 C145.76263258 237.35613754 142.00965743 237.35690776 138.25653648 237.37107468 C98.31203134 237.51300895 62.7041465 229.46025427 33 201 C32.24074219 200.30390625 31.48148437 199.6078125 30.69921875 198.890625 C11.47565601 180.69630309 0.83706777 154.16845536 -0.11059952 127.93881416 C-0.26997155 119.63533639 -0.23664703 111.33087402 -0.20278788 103.02637982 C-0.19014683 99.39494921 -0.18909962 95.76351404 -0.18673706 92.13206482 C-0.18056108 85.27954353 -0.16420379 78.42708729 -0.14403808 71.57459444 C-0.12155701 63.76303803 -0.11065519 55.95147825 -0.10064721 48.13989747 C-0.07983334 32.09322711 -0.04473429 16.0466219 0 0 Z " fill="#152941" transform="translate(243,529)"/>
<path d="M0 0 C19.24010206 15.828094 31.30111936 35.47426371 37.1796875 59.66796875 C37.51806641 60.95767578 37.51806641 60.95767578 37.86328125 62.2734375 C39.03422088 67.22368572 39.26222553 71.89254318 39.2265625 76.98046875 C39.21979492 78.23472656 39.21302734 79.48898437 39.20605469 80.78125 C39.19300293 82.21017578 39.19300293 82.21017578 39.1796875 83.66796875 C38.43211182 83.96864258 37.68453613 84.26931641 36.91430664 84.57910156 C-0.30557527 99.60906075 -34.94217987 117.04354294 -66.8203125 141.66796875 C-70.62322764 139.51397385 -74.08723048 137.04234744 -77.58959961 134.44360352 C-106.87991147 112.7699909 -139.62194081 96.13954384 -173.8203125 83.66796875 C-175.28220263 56.8666497 -162.78474278 30.81712505 -145.45019531 11.11035156 C-108.21946919 -30.26575812 -43.42616695 -33.66937879 0 0 Z " fill="#E9B03C" transform="translate(578.8203125,452.33203125)"/>
<path d="M0 0 C5.68421053 3.05263158 5.68421053 3.05263158 7 7 C7.09903271 8.84071334 7.13930153 10.68480906 7.14717102 12.52816772 C7.15432632 13.67780502 7.16148163 14.82744232 7.16885376 16.01191711 C7.17288712 17.9055323 7.17288712 17.9055323 7.17700195 19.83740234 C7.18326796 21.17947058 7.18991489 22.52153708 7.19691467 23.86360168 C7.21793705 28.27103471 7.22831373 32.67846801 7.23828125 37.0859375 C7.24232916 38.6035832 7.24644609 40.12122872 7.25063133 41.63887405 C7.26967714 48.76744991 7.28391077 55.89601543 7.2922433 63.02461183 C7.30202098 71.25352671 7.32835664 79.48217297 7.36874419 87.71099317 C7.39889359 94.07201567 7.41371095 100.4329611 7.41702431 106.79405367 C7.41937571 110.59322508 7.42834772 114.3921093 7.45348549 118.19120407 C7.47675169 121.76505754 7.48100569 125.33843443 7.47072411 128.91234398 C7.46999209 130.84727937 7.48909254 132.78219048 7.50878906 134.71702576 C7.50184525 135.8723027 7.49490143 137.02757965 7.48774719 138.21786499 C7.49013555 139.21964468 7.4925239 140.22142437 7.49498463 141.25356102 C6.86294058 144.76047881 5.43128275 146.44497667 3 149 C-0.55129622 150.77564811 -4.50780047 150.45594986 -8.25 149.3125 C-10.64550394 147.51587204 -11.64267362 145.66553557 -13 143 C-13.38031673 140.25914764 -13.38031673 140.25914764 -13.38768005 137.23132324 C-13.39758469 136.07893661 -13.40748932 134.92654999 -13.41769409 133.73924255 C-13.41094162 131.85641319 -13.41094162 131.85641319 -13.40405273 129.93554688 C-13.40975828 128.59317965 -13.41672325 127.25081727 -13.42485046 125.90846252 C-13.44277543 122.27003905 -13.441615 118.63185683 -13.43590808 114.99340248 C-13.43281571 111.9540488 -13.4389091 108.91474143 -13.44494683 105.87539434 C-13.45898781 98.705139 -13.45743392 91.53500282 -13.44604492 84.36474609 C-13.43455955 76.97046384 -13.44864713 69.57654412 -13.4754414 62.18230963 C-13.49759818 55.82971567 -13.50423598 49.47723551 -13.49836498 43.12460566 C-13.49499466 39.3322039 -13.49741543 35.54003462 -13.51461601 31.74766541 C-13.53008333 28.18194718 -13.52613272 24.61676624 -13.50731087 21.05106926 C-13.50186831 19.12095683 -13.5161401 17.1908203 -13.53100586 15.26075745 C-13.52117172 14.10837082 -13.51133759 12.95598419 -13.50120544 11.76867676 C-13.50099616 10.76949471 -13.50078688 9.77031265 -13.50057125 8.74085236 C-12.86139526 5.24107683 -11.42655784 3.55205731 -9 1 C-5.89046621 -0.5547669 -3.43733239 -0.28644437 0 0 Z " fill="#D9972A" transform="translate(515,249)"/>
<path d="M0 0 C3.27973646 0.08978345 4.69829487 0.38062233 7.6875 1.9375 C10.31387689 5.13839684 10.45470758 7.26664497 10.6875 11.375 C9.7109375 14.3125 9.7109375 14.3125 8.0625 17.375 C7.59759155 18.25224731 7.59759155 18.25224731 7.12329102 19.1472168 C6.00233638 21.23738806 4.84812985 23.30659985 3.6875 25.375 C3.23004395 26.19564941 2.77258789 27.01629883 2.30126953 27.86181641 C-0.37256128 32.64763065 -3.0728657 37.41780341 -5.7890625 42.1796875 C-8.72594749 47.33105879 -11.62260499 52.5037394 -14.50756836 57.68432617 C-20.23354179 67.96412127 -26.06944023 78.16953267 -32.0402832 88.30908203 C-35.15302862 93.6120181 -38.20138904 98.94381913 -41.1640625 104.33203125 C-41.79570313 105.47736328 -42.42734375 106.62269531 -43.078125 107.80273438 C-44.29173566 110.01196471 -45.49782578 112.22534786 -46.6953125 114.44335938 C-47.241875 115.43787109 -47.7884375 116.43238281 -48.3515625 117.45703125 C-48.82803223 118.33593018 -49.30450195 119.2148291 -49.79541016 120.12036133 C-51.42825248 122.54702674 -52.79872459 123.891807 -55.3125 125.375 C-60.61935731 125.88041498 -64.04364172 125.89053035 -68.3125 122.375 C-70.65996827 119.1332581 -70.57371016 116.2937515 -70.3125 112.375 C-69.18945312 109.75146484 -69.18945312 109.75146484 -67.59375 107.0859375 C-66.99941162 106.07644043 -66.40507324 105.06694336 -65.79272461 104.02685547 C-65.13925049 102.94549316 -64.48577637 101.86413086 -63.8125 100.75 C-63.13077673 99.59998894 -62.45054804 98.44909073 -61.77172852 97.29736328 C-60.70822712 95.4937579 -59.6436077 93.69089729 -58.57411194 91.89083862 C-55.05773063 85.97187571 -51.64811546 79.99437348 -48.24868774 74.00772095 C-42.37656068 63.67259788 -36.42027699 53.38822835 -30.40795898 43.1340332 C-25.75732704 35.18450315 -21.21976609 27.17402972 -16.74926758 19.12182617 C-6.11110317 0.10270762 -6.11110317 0.10270762 0 0 Z " fill="#D9962A" transform="translate(641.3125,290.625)"/>
<path d="M0 0 C2.8100346 1.79363911 4.50940468 3.01880935 6 6 C6.44201895 9.22042381 6.68258108 11.78310339 5.046875 14.69921875 C1.30735706 19.30914173 -3.38705395 22.86529502 -8.0078125 26.546875 C-11.11566929 29.0948307 -14.06296648 31.76007005 -17 34.5 C-21.60941325 38.79019153 -26.37788871 42.80415433 -31.28515625 46.75390625 C-34.10673495 49.0883059 -36.80590712 51.51990598 -39.5 54 C-43.05670244 57.27418423 -46.67161811 60.40642433 -50.4375 63.4375 C-54.43227235 66.65945721 -58.24524938 70.00684343 -62 73.5 C-66.59078496 77.76545374 -71.30511948 81.80849866 -76.203125 85.72265625 C-78.2180605 87.36330904 -80.17060379 89.02053932 -82.109375 90.74609375 C-82.63337891 91.20491943 -83.15738281 91.66374512 -83.69726562 92.13647461 C-85.16547073 93.42577107 -86.62217286 94.72813261 -88.078125 96.03125 C-91.51779376 98.34888777 -93.87710533 98.86529632 -98 99 C-101.74669241 97.02061533 -103.64677369 95.52983947 -106 92 C-106.54880958 87.88392812 -106.07423045 85.06914132 -103.58203125 81.6875 C-100.65901454 78.56961551 -97.27431444 76.00366806 -93.9296875 73.35546875 C-91.19245741 71.15473575 -88.59007845 68.87079066 -86 66.5 C-82.62539052 63.42346328 -79.18184136 60.48881783 -75.625 57.625 C-71.61175889 54.3804924 -67.77564046 51.0127332 -64 47.5 C-59.367489 43.1900623 -54.5787805 39.1493906 -49.6484375 35.1796875 C-47.02724881 33.02242601 -44.50845719 30.78689 -42 28.5 C-38.62539052 25.42346328 -35.18184136 22.48881783 -31.625 19.625 C-26.46717055 15.46215609 -21.63750475 11.03109249 -16.82421875 6.48046875 C-11.03939983 1.39974951 -7.62629411 -0.9684183 0 0 Z " fill="#D9972A" transform="translate(729,360)"/>
<path d="M0 0 C6.92052061 3.34691844 10.38467255 12.72704145 13.83984375 19.10546875 C15.16976903 21.53442806 16.50487657 23.96052768 17.83984375 26.38671875 C18.18195389 27.00978912 18.52406403 27.6328595 18.87654114 28.27481079 C22.62569847 35.09276398 26.47337619 41.85352956 30.33984375 48.60546875 C30.85001038 49.49697632 30.85001038 49.49697632 31.3704834 50.40649414 C35.60627969 57.80460726 39.87857811 65.17987184 44.22070312 72.51611328 C48.139558 79.1443607 51.99095031 85.81145173 55.83984375 92.48046875 C56.4747876 93.57955566 57.10973145 94.67864258 57.76391602 95.81103516 C59.52429984 98.8641681 61.27717113 101.92147363 63.02734375 104.98046875 C63.53563721 105.86057617 64.04393066 106.74068359 64.56762695 107.64746094 C65.02097412 108.44313477 65.47432129 109.23880859 65.94140625 110.05859375 C66.33408691 110.7434082 66.72676758 111.42822266 67.13134766 112.13378906 C68.50060083 114.95586836 68.65253036 116.9240009 68.02734375 119.98046875 C66.22740601 122.68037537 64.94357075 124.52235525 62.02734375 125.98046875 C55.14197131 126.66900599 55.14197131 126.66900599 51.20703125 124.23828125 C46.45271829 119.99442821 43.84922187 114.0273077 40.90234375 108.48046875 C40.24048223 107.25783017 39.57713213 106.03599634 38.91235352 104.81494141 C37.904752 102.96389327 36.89798992 101.11245323 35.89582825 99.25845337 C33.00283505 93.90792224 30.00395109 88.62394161 26.96484375 83.35546875 C20.84137126 72.69395545 14.84010538 61.96537202 8.84472656 51.23144531 C6.97876742 47.89357428 5.10908339 44.55781507 3.23828125 41.22265625 C2.61679199 40.11438477 1.99530273 39.00611328 1.35498047 37.86425781 C0.17732335 35.76442249 -1.00070771 33.66479683 -2.17919922 31.56542969 C-3.2528875 29.64989037 -4.32378809 27.73278526 -5.39160156 25.81396484 C-6.48565474 23.85325125 -7.58986144 21.8981815 -8.70214844 19.94775391 C-9.25032227 18.97370605 -9.79849609 17.9996582 -10.36328125 16.99609375 C-10.85860352 16.12500977 -11.35392578 15.25392578 -11.86425781 14.35644531 C-12.97265625 11.98046875 -12.97265625 11.98046875 -13.22265625 8.10546875 C-10.64332544 1.65714173 -6.66292145 -0.72215713 0 0 Z " fill="#D8962B" transform="translate(384.97265625,290.01953125)"/>
<path d="M0 0 C2.71412058 1.41572689 4.75079448 3.3144633 6.9375 5.4375 C7.53667236 5.98446533 8.13584473 6.53143066 8.75317383 7.0949707 C10.51971406 8.71215262 12.25993899 10.35444053 14 12 C15.72490697 13.56720119 17.45357566 15.13028133 19.1875 16.6875 C19.97769531 17.40550781 20.76789063 18.12351562 21.58203125 18.86328125 C24.12413644 21.10969731 26.73379395 23.24621053 29.375 25.375 C33.92860712 29.05636689 38.23582516 32.92774473 42.51904297 36.91357422 C45.75176204 39.90412641 49.06687666 42.73771685 52.5 45.5 C57.02018919 49.13693383 61.28312787 52.97088803 65.52612305 56.9206543 C68.69351422 59.85149799 71.94097701 62.62027646 75.3125 65.3125 C80.09953488 69.16735971 84.62844548 73.25189726 89.125 77.4375 C89.78927002 78.05343018 90.45354004 78.66936035 91.13793945 79.30395508 C91.75499756 79.88298584 92.37205566 80.4620166 93.0078125 81.05859375 C93.56098145 81.57736084 94.11415039 82.09612793 94.68408203 82.63061523 C96.62885221 84.65440298 96.99264304 85.94604895 97.375 88.75 C96.97360212 92.22878167 96.08416355 94.27206776 93.6875 96.859375 C90.99159177 98.68160927 88.56017623 98.63570851 85.37890625 98.6015625 C79.66650366 97.1570469 75.48375195 92.75612565 71.3125 88.8125 C67.47940921 85.22793879 63.59466044 81.7887649 59.5 78.5 C54.38754015 74.38347389 49.57423446 70.0077116 44.76171875 65.55078125 C35.56042545 57.05227414 25.90818969 49.02765739 16.37109375 40.91015625 C9.97593763 35.45977879 3.66870512 29.94331179 -2.51953125 24.2578125 C-5.44048753 21.59905229 -8.42635073 19.02385708 -11.44140625 16.47265625 C-13.8774075 14.17097086 -14.94067117 12.45485438 -15.375 9.125 C-14.91377729 5.28147742 -13.66559892 3.74399889 -11 1 C-7.48797396 -0.75601302 -3.82912736 -0.59960959 0 0 Z " fill="#D89629" transform="translate(304,360)"/>
<path d="M0 0 C4.57627119 3.15254237 4.57627119 3.15254237 6 6 C6.69478098 13.06360665 6.69478098 13.06360665 4.25048828 16.35791016 C-0.03647876 20.47244882 -5.99751001 21.70563873 -11.53125 23.44140625 C-12.77932434 23.84634811 -14.02739868 24.25128998 -15.31329346 24.66850281 C-18.67609519 25.75932508 -22.04455014 26.83153742 -25.41459656 27.8997345 C-28.89447036 29.00567892 -32.36939143 30.12696201 -35.84472656 31.24707031 C-40.00210357 32.58592199 -44.16002729 33.92296369 -48.32061768 35.25180054 C-56.21646581 37.77427794 -64.09494713 40.34259393 -71.953125 42.98046875 C-74.45400547 43.81473226 -76.95514088 44.64822777 -79.45629883 45.48165894 C-80.96858278 45.98824186 -82.47953027 46.49883457 -83.98901367 47.01370239 C-101.28945767 52.90426179 -101.28945767 52.90426179 -108.9375 49.8125 C-111.459119 47.59653179 -112.25497263 46.27812043 -113 43 C-112.9375 39.4375 -112.9375 39.4375 -112 36 C-108.58405894 32.75056884 -105.37296765 31.17312166 -100.921875 29.72265625 C-100.30625702 29.51879303 -99.69063904 29.31492981 -99.05636597 29.10488892 C-96.9576258 28.4132539 -94.85411385 27.73759689 -92.75 27.0625 C-91.22942943 26.5675054 -89.70909321 26.07179041 -88.18896484 25.57543945 C-84.62944627 24.41530252 -81.06756801 23.26267674 -77.50488281 22.11230469 C-71.9666754 20.31962915 -66.43839491 18.49794976 -60.91172791 16.67010975 C-55.04384344 14.72977622 -49.17259123 12.79986992 -43.29911804 10.87652111 C-39.59189671 9.66227186 -35.88613347 8.44394066 -32.18347168 7.21585083 C-28.6411492 6.04146798 -25.09472818 4.88037117 -21.54495621 3.72871017 C-20.22031826 3.29650174 -18.89717916 2.85966899 -17.57567978 2.41795731 C-15.74677398 1.80747263 -13.91181426 1.215216 -12.07666016 0.6237793 C-11.04384918 0.2846904 -10.01103821 -0.0543985 -8.94692993 -0.40376282 C-5.59219767 -1.08250855 -3.30141189 -0.85319835 0 0 Z " fill="#D9972B" transform="translate(757,461)"/>
<path d="M0 0 C4.27364304 1.04158486 8.36365765 2.51174934 12.5 4 C15.13774592 4.91984451 17.77986314 5.82686722 20.421875 6.734375 C21.14610657 6.98459412 21.87033813 7.23481323 22.61651611 7.49261475 C33.59850439 11.26773666 44.6836583 14.73211455 55.75 18.25 C61.94582924 20.22091102 68.14078497 22.1941935 74.33007812 24.18554688 C77.99314185 25.36383808 81.66296473 26.51455832 85.34179688 27.64257812 C86.96234371 28.15201264 88.58279264 28.66175873 90.203125 29.171875 C90.92659119 29.38636292 91.65005737 29.60085083 92.39544678 29.82183838 C97.06520336 31.31575077 99.85803304 33.24534013 103 37 C103.84369794 39.76691 103.63068481 42.18748668 103 45 C101.20636089 47.8100346 99.98119065 49.50940468 97 51 C90.53078735 51.66721455 85.0588435 50.44932899 78.98046875 48.359375 C78.13616302 48.08112381 77.2918573 47.80287262 76.42196655 47.51618958 C73.67275638 46.60676308 70.93027219 45.67864297 68.1875 44.75 C66.26788965 44.11071679 64.34788078 43.47262906 62.42749023 42.83569336 C58.51327725 41.53504482 54.60175439 40.22674874 50.69238281 38.91162109 C45.42271709 37.13943734 40.14631531 35.38829383 34.8671875 33.64453125 C28.15901985 31.4269191 21.45697608 29.19189976 14.76133728 26.93673706 C10.66681445 25.55780877 6.56731157 24.1949227 2.46484375 22.83984375 C0.64292814 22.22745736 -1.17871623 21.61426298 -3 21 C-4.17453735 20.61823608 -4.17453735 20.61823608 -5.37280273 20.22875977 C-9.45356429 18.83072542 -12.41164698 17.52358489 -15 14 C-15.8013411 10.9106919 -15.61624412 8.12008282 -15 5 C-11.25060198 -1.12401676 -6.50689156 -0.70146388 0 0 Z " fill="#D9962B" transform="translate(276,461)"/>
<path d="M0 0 C0.02337828 17.08976533 0.04100339 34.17952565 0.05181217 51.26930332 C0.05696465 59.20468748 0.06398738 67.14006168 0.07543945 75.07543945 C0.08541831 81.99330319 0.09186105 88.91115972 0.09408849 95.82903045 C0.09539016 99.49070531 0.09844157 103.15235955 0.10573006 106.81402779 C0.11380754 110.90540601 0.11398907 114.99674859 0.11352539 119.08813477 C0.11712067 120.29726532 0.12071594 121.50639587 0.12442017 122.75216675 C0.11764253 128.27564068 -0.00458262 133.56148907 -1 139 C-1.33 139 -1.66 139 -2 139 C-2 93.79 -2 48.58 -2 2 C-13.88 3.65 -25.76 5.3 -38 7 C-42.021875 7.53625 -46.04375 8.0725 -50.1875 8.625 C-57.34957774 9.58986806 -64.45709432 10.706885 -71.55151367 12.08642578 C-75.42371398 12.81915081 -79.06084633 13.12765776 -83 13 C-79.58040779 10.72027186 -76.63080793 10.24673569 -72.66796875 9.6328125 C-71.93180832 9.51317642 -71.19564789 9.39354034 -70.43717957 9.27027893 C-68.02182247 8.880522 -65.60483847 8.50225823 -63.1875 8.125 C-61.51576422 7.8592789 -59.84405218 7.59340845 -58.17236328 7.32739258 C-11.7658226 0 -11.7658226 0 0 0 Z " fill="#05070E" transform="translate(781,529)"/>
<path d="M0 0 C1.56121603 4.68364808 1.65414421 9.09728178 0.05859375 13.73828125 C-1.19908118 17.61340512 -1.67990699 21.33997646 -2.125 25.375 C-2.21136719 26.11105469 -2.29773438 26.84710937 -2.38671875 27.60546875 C-2.59681885 29.40299182 -2.79920767 31.20141342 -3 33 C-1.35 33.66 0.3 34.32 2 35 C-1.62326739 36.2077558 -2.64146369 35.54311128 -6 34 C-6.32881242 27.97177224 -5.70846655 22.36246403 -4.6875 16.4375 C-4.56979248 15.72988525 -4.45208496 15.02227051 -4.33081055 14.29321289 C-3.42053202 9.26076456 -1.9058165 4.74585677 0 0 Z " fill="#DB8E23" transform="translate(411,502)"/>
<path d="M0 0 C0.66 0.33 1.32 0.66 2 1 C-8.22667829 12.27942459 -8.22667829 12.27942459 -13.375 17.625 C-13.96023438 18.23601563 -14.54546875 18.84703125 -15.1484375 19.4765625 C-17.29819152 21.24534745 -19.38292387 22.09166773 -22 23 C-18.49110606 17.23538852 -18.49110606 17.23538852 -16.20703125 16.140625 C-13.08583345 14.52754578 -10.86350818 12.11321352 -8.4375 9.625 C-7.95603516 9.14289062 -7.47457031 8.66078125 -6.97851562 8.1640625 C-4.4274727 5.58143857 -2.08996942 2.96958619 0 0 Z " fill="#06080C" transform="translate(759,715)"/>
<path d="M0 0 C4.65035029 4.13830811 7.41415286 8.74770312 10.375 14.1875 C10.83777344 15.00669922 11.30054688 15.82589844 11.77734375 16.66992188 C14.27359523 21.19670628 14.27359523 21.19670628 15 23 C14.67 23.66 14.34 24.32 14 25 C13.56917114 24.2589502 13.56917114 24.2589502 13.12963867 23.50292969 C11.81815756 21.25044832 10.50286856 19.00021326 9.1875 16.75 C8.73568359 15.97269531 8.28386719 15.19539063 7.81835938 14.39453125 C7.15610352 13.26337891 7.15610352 13.26337891 6.48046875 12.109375 C6.07723389 11.41811523 5.67399902 10.72685547 5.25854492 10.01464844 C2.54581609 5.43059393 2.54581609 5.43059393 -2 3 C-1.34 2.67 -0.68 2.34 0 2 C0 1.34 0 0.68 0 0 Z " fill="#CE7710" transform="translate(387,292)"/>
<path d="M0 0 C0.66 0.33 1.32 0.66 2 1 C-3.28 4.63 -8.56 8.26 -14 12 C-14.66 11.67 -15.32 11.34 -16 11 C-13.51317789 6.75777405 -10.44674216 5.80884427 -6 4 C-3.92296895 2.75287437 -1.9801097 1.4005654 0 0 Z " fill="#D87C14" transform="translate(541,571)"/>
<path d="M0 0 C0 4.74373374 -1.30817789 7.23899568 -4.5 10.75 C-7 13 -7 13 -9 14 C-7.34966761 8.71893635 -3.90667286 3.90667286 0 0 Z " fill="#E19720" transform="translate(430,468)"/>
<path d="M0 0 C2.76826894 2.47643336 4.44356974 5.20609442 6.25 8.4375 C6.79140625 9.38496094 7.3328125 10.33242188 7.890625 11.30859375 C9.07034549 14.17066212 9.14356445 15.18762929 8 18 C7.67 16.35 7.34 14.7 7 13 C6.34 13 5.68 13 5 13 C4.35004703 11.58521865 3.70521278 10.16808513 3.0625 8.75 C2.70285156 7.96109375 2.34320313 7.1721875 1.97265625 6.359375 C1.09966721 4.24176302 0.48661492 2.23330638 0 0 Z " fill="#D07A15" transform="translate(444,390)"/>
<path d="M0 0 C1 3 1 3 1 5 C-1.64 5.66 -4.28 6.32 -7 7 C-5.66667905 3.00003714 -3.5042173 2.16217663 0 0 Z " fill="#131D2C" transform="translate(575,587)"/>
<path d="M0 0 C0.66 0.33 1.32 0.66 2 1 C-2.455 4.465 -2.455 4.465 -7 8 C-7.66 7.67 -8.32 7.34 -9 7 C-6.25604436 4.05278838 -3.61662784 1.80831392 0 0 Z " fill="#D97E15" transform="translate(523,583)"/>
<path d="M0 0 C2 1 2 1 3 3 C-0.63 3.33 -4.26 3.66 -8 4 C-7.67 3.01 -7.34 2.02 -7 1 C-5.5459375 1.0309375 -5.5459375 1.0309375 -4.0625 1.0625 C-1.12534105 1.35618499 -1.12534105 1.35618499 0 0 Z " fill="#F3F2EE" transform="translate(735,532)"/>
<path d="M0 0 C0.33 1.32 0.66 2.64 1 4 C-0.65 5.32 -2.3 6.64 -4 8 C-4.66 7.67 -5.32 7.34 -6 7 C-4.02 4.69 -2.04 2.38 0 0 Z " fill="#111C2B" transform="translate(526,632)"/>
<path d="M0 0 C0.66 0.33 1.32 0.66 2 1 C1.01 1.33 0.02 1.66 -1 2 C-1 2.66 -1 3.32 -1 4 C-1.99 4.33 -2.98 4.66 -4 5 C-4.99 4.34 -5.98 3.68 -7 3 C-4.69631264 1.93347808 -2.35981813 0.93578995 0 0 Z " fill="#0D1520" transform="translate(630,559)"/>
<path d="M0 0 C0.33 0 0.66 0 1 0 C1 1.65 1 3.3 1 5 C0.67 5 0.34 5 0 5 C0 3.35 0 1.7 0 0 Z " fill="#F4F2E8" transform="translate(197,698)"/>
<path d="M0 0 C1 4 1 4 1 4 Z " fill="#F5F3EA" transform="translate(196,668)"/>
<path d="M0 0 C1 4 1 4 1 4 Z " fill="#F5F4EB" transform="translate(196,628)"/>
<path d="M0 0 C1 4 1 4 1 4 Z " fill="#F6F3EB" transform="translate(196,612)"/>
<path d="M0 0 C1 4 1 4 1 4 Z " fill="#F6F3EB" transform="translate(196,548)"/>
<path d="M0 0 C1 4 1 4 1 4 Z " fill="#F6F3EA" transform="translate(196,476)"/>
<path d="M0 0 C1 4 1 4 1 4 Z " fill="#F6F3EB" transform="translate(196,468)"/>
<path d="M0 0 C1 4 1 4 1 4 Z " fill="#F6F3EA" transform="translate(196,436)"/>
<path d="M0 0 C1 4 1 4 1 4 Z " fill="#F5F3E9" transform="translate(196,388)"/>
<path d="M0 0 C1 4 1 4 1 4 Z " fill="#F5F2E9" transform="translate(196,316)"/>
<path d="M0 0 C0.66 0 1.32 0 2 0 C1.67 0.99 1.34 1.98 1 3 C0.67 2.01 0.34 1.02 0 0 Z " fill="#F5F2E8" transform="translate(210,256)"/>
<path d="" fill="#F6F4E9" transform="translate(0,0)"/>
<path d="" fill="#F5F4E9" transform="translate(0,0)"/>
<path d="" fill="#F6F3E9" transform="translate(0,0)"/>
<path d="" fill="#F6F4EA" transform="translate(0,0)"/>
<path d="" fill="#F5F4EB" transform="translate(0,0)"/>
<path d="" fill="#F5F4EA" transform="translate(0,0)"/>
<path d="" fill="#F5F4EA" transform="translate(0,0)"/>
<path d="" fill="#F5F3EA" transform="translate(0,0)"/>
<path d="" fill="#F5F3EB" transform="translate(0,0)"/>
<path d="" fill="#F5F4EB" transform="translate(0,0)"/>
<path d="" fill="#F5F3EA" transform="translate(0,0)"/>
<path d="" fill="#F6F4EB" transform="translate(0,0)"/>
<path d="" fill="#F5F3EB" transform="translate(0,0)"/>
<path d="" fill="#F5F4EB" transform="translate(0,0)"/>
<path d="" fill="#F6F4EB" transform="translate(0,0)"/>
<path d="" fill="#F5F4EC" transform="translate(0,0)"/>
<path d="" fill="#F6F4EB" transform="translate(0,0)"/>
<path d="" fill="#F6F4EB" transform="translate(0,0)"/>
<path d="" fill="#F6F3EB" transform="translate(0,0)"/>
<path d="" fill="#F5F4EB" transform="translate(0,0)"/>
<path d="" fill="#F6F3EB" transform="translate(0,0)"/>
<path d="" fill="#F6F3EA" transform="translate(0,0)"/>
<path d="" fill="#F6F3EB" transform="translate(0,0)"/>
<path d="" fill="#F5F3EA" transform="translate(0,0)"/>
<path d="" fill="#F5F3EA" transform="translate(0,0)"/>
<path d="" fill="#F5F4EB" transform="translate(0,0)"/>
<path d="" fill="#F5F3EA" transform="translate(0,0)"/>
<path d="" fill="#F6F3EA" transform="translate(0,0)"/>
<path d="" fill="#F8F4EB" transform="translate(0,0)"/>
<path d="" fill="#F5F4EA" transform="translate(0,0)"/>
<path d="" fill="#F4F4EB" transform="translate(0,0)"/>
<path d="" fill="#F4F3E9" transform="translate(0,0)"/>
<path d="" fill="#F5F2EA" transform="translate(0,0)"/>
<path d="" fill="#F5F3EA" transform="translate(0,0)"/>
<path d="" fill="#F5F1E8" transform="translate(0,0)"/>
<path d="" fill="#F6F4EA" transform="translate(0,0)"/>
<path d="" fill="#F6F4EB" transform="translate(0,0)"/>
<path d="" fill="#F6F4EB" transform="translate(0,0)"/>
<path d="" fill="#F5F3EB" transform="translate(0,0)"/>
<path d="" fill="#F6F4EB" transform="translate(0,0)"/>
<path d="M0 0 C2 1 2 1 2 1 Z " fill="#F4F2E7" transform="translate(196,311)"/>
<path d="M0 0 C2 1 2 1 2 1 Z " fill="#F4F1E6" transform="translate(734,187)"/>
<path d="M0 0 C2 1 2 1 2 1 Z " fill="#F7F4E9" transform="translate(681,176)"/>
<path d="" fill="#656563" transform="translate(0,0)"/>
<path d="" fill="#F2F0E7" transform="translate(0,0)"/>
<path d="" fill="#F2F0E6" transform="translate(0,0)"/>
<path d="" fill="#F2EFE3" transform="translate(0,0)"/>
<path d="" fill="#F4F0E7" transform="translate(0,0)"/>
<path d="" fill="#F4F2E9" transform="translate(0,0)"/>
<path d="" fill="#F3EFE5" transform="translate(0,0)"/>
<path d="" fill="#F5F0E7" transform="translate(0,0)"/>
<path d="" fill="#F2EFE7" transform="translate(0,0)"/>
<path d="" fill="#F2EFE7" transform="translate(0,0)"/>
<path d="" fill="#F4F1E8" transform="translate(0,0)"/>
<path d="" fill="#F3F1E7" transform="translate(0,0)"/>
<path d="" fill="#F5F6E9" transform="translate(0,0)"/>
<path d="" fill="#F6F0EA" transform="translate(0,0)"/>
<path d="" fill="#F6F3EB" transform="translate(0,0)"/>
<path d="" fill="#F4F3E9" transform="translate(0,0)"/>
<path d="" fill="#F5F3E9" transform="translate(0,0)"/>
<path d="" fill="#F6F2E8" transform="translate(0,0)"/>
<path d="" fill="#F4EFE4" transform="translate(0,0)"/>
<path d="" fill="#F8F3EA" transform="translate(0,0)"/>
<path d="" fill="#F5F5EA" transform="translate(0,0)"/>
<path d="" fill="#F5F4E9" transform="translate(0,0)"/>
<path d="" fill="#F7F4EB" transform="translate(0,0)"/>
<path d="" fill="#F8F6EB" transform="translate(0,0)"/>
<path d="" fill="#F7F6EA" transform="translate(0,0)"/>
<path d="" fill="#F8F2E9" transform="translate(0,0)"/>
<path d="" fill="#F8F4EA" transform="translate(0,0)"/>
<path d="" fill="#F6F2EA" transform="translate(0,0)"/>
<path d="" fill="#F5F4EA" transform="translate(0,0)"/>
<path d="" fill="#F4F3E9" transform="translate(0,0)"/>
<path d="" fill="#F6F3EC" transform="translate(0,0)"/>
<path d="" fill="#F6F3E9" transform="translate(0,0)"/>
<path d="" fill="#F5F3EA" transform="translate(0,0)"/>
<path d="" fill="#F7F5EB" transform="translate(0,0)"/>
<path d="" fill="#F8F4EB" transform="translate(0,0)"/>
<path d="" fill="#F7F4ED" transform="translate(0,0)"/>
<path d="" fill="#F6F3EB" transform="translate(0,0)"/>
<path d="" fill="#F5F4EC" transform="translate(0,0)"/>
<path d="" fill="#F8F4EB" transform="translate(0,0)"/>
<path d="" fill="#F6F5EB" transform="translate(0,0)"/>
<path d="" fill="#F7F4ED" transform="translate(0,0)"/>
<path d="" fill="#F8F3EB" transform="translate(0,0)"/>
<path d="" fill="#F6F3EC" transform="translate(0,0)"/>
<path d="" fill="#F7F5ED" transform="translate(0,0)"/>
<path d="" fill="#F6F5EC" transform="translate(0,0)"/>
<path d="" fill="#F8F5EC" transform="translate(0,0)"/>
<path d="" fill="#F7F5EC" transform="translate(0,0)"/>
<path d="" fill="#F6F5EC" transform="translate(0,0)"/>
<path d="" fill="#F8F4EC" transform="translate(0,0)"/>
<path d="" fill="#F6F4EB" transform="translate(0,0)"/>
<path d="" fill="#F7F6EB" transform="translate(0,0)"/>
<path d="" fill="#F6F4EC" transform="translate(0,0)"/>
<path d="" fill="#F7F6EC" transform="translate(0,0)"/>
<path d="" fill="#F9F4EB" transform="translate(0,0)"/>
<path d="" fill="#F7F5EC" transform="translate(0,0)"/>
<path d="" fill="#F6F6EB" transform="translate(0,0)"/>
<path d="" fill="#F6F4EC" transform="translate(0,0)"/>
<path d="" fill="#F6F5EB" transform="translate(0,0)"/>
<path d="" fill="#F5F4EA" transform="translate(0,0)"/>
<path d="" fill="#F6F4EC" transform="translate(0,0)"/>
<path d="" fill="#F6F5EB" transform="translate(0,0)"/>
<path d="" fill="#F6F3EB" transform="translate(0,0)"/>
<path d="" fill="#F8F6EC" transform="translate(0,0)"/>
<path d="" fill="#F7F4EB" transform="translate(0,0)"/>
<path d="" fill="#F6F4EB" transform="translate(0,0)"/>
<path d="" fill="#F5F3EB" transform="translate(0,0)"/>
<path d="" fill="#F7F5ED" transform="translate(0,0)"/>
<path d="" fill="#F7F4EC" transform="translate(0,0)"/>
<path d="" fill="#F7F5EB" transform="translate(0,0)"/>
<path d="" fill="#F8F5EE" transform="translate(0,0)"/>
<path d="" fill="#F7F5ED" transform="translate(0,0)"/>
<path d="" fill="#F7F5EB" transform="translate(0,0)"/>
<path d="" fill="#F6F6EC" transform="translate(0,0)"/>
<path d="" fill="#F8F4EA" transform="translate(0,0)"/>
<path d="" fill="#F6F6EA" transform="translate(0,0)"/>
<path d="" fill="#F8F5EC" transform="translate(0,0)"/>
<path d="" fill="#FAF4EC" transform="translate(0,0)"/>
<path d="" fill="#F8F3ED" transform="translate(0,0)"/>
<path d="" fill="#F8F4EB" transform="translate(0,0)"/>
<path d="" fill="#F9F4EC" transform="translate(0,0)"/>
<path d="" fill="#F8F4ED" transform="translate(0,0)"/>
<path d="" fill="#F7F5EC" transform="translate(0,0)"/>
<path d="" fill="#F6F6EB" transform="translate(0,0)"/>
<path d="" fill="#F6F4EA" transform="translate(0,0)"/>
<path d="" fill="#F7F4EA" transform="translate(0,0)"/>
<path d="" fill="#F7F3EB" transform="translate(0,0)"/>
<path d="" fill="#F8F4ED" transform="translate(0,0)"/>
<path d="" fill="#F6F3ED" transform="translate(0,0)"/>
<path d="" fill="#F6F5EB" transform="translate(0,0)"/>
<path d="" fill="#F7F3EC" transform="translate(0,0)"/>
<path d="" fill="#F6F5EB" transform="translate(0,0)"/>
<path d="" fill="#F8F5ED" transform="translate(0,0)"/>
<path d="" fill="#F8F4EC" transform="translate(0,0)"/>
<path d="" fill="#F7F4EC" transform="translate(0,0)"/>
<path d="" fill="#F9F4EE" transform="translate(0,0)"/>
<path d="" fill="#F7F5EC" transform="translate(0,0)"/>
<path d="" fill="#F5F3EB" transform="translate(0,0)"/>
<path d="" fill="#F6F5ED" transform="translate(0,0)"/>
<path d="" fill="#F7F4EB" transform="translate(0,0)"/>
<path d="" fill="#F7F5EC" transform="translate(0,0)"/>
<path d="" fill="#F7F3EC" transform="translate(0,0)"/>
<path d="" fill="#F6F4EB" transform="translate(0,0)"/>
<path d="" fill="#F5F3EB" transform="translate(0,0)"/>
<path d="" fill="#F6F3EC" transform="translate(0,0)"/>
<path d="" fill="#F6F3EA" transform="translate(0,0)"/>
<path d="" fill="#F5F3E9" transform="translate(0,0)"/>
<path d="" fill="#F5F4E9" transform="translate(0,0)"/>
<path d="" fill="#F5F3E9" transform="translate(0,0)"/>
<path d="" fill="#F6F2EC" transform="translate(0,0)"/>
<path d="" fill="#F6F3E9" transform="translate(0,0)"/>
<path d="" fill="#F6F3E9" transform="translate(0,0)"/>
<path d="" fill="#F5F1E7" transform="translate(0,0)"/>
<path d="" fill="#F5F3E9" transform="translate(0,0)"/>
<path d="" fill="#F9F4EE" transform="translate(0,0)"/>
<path d="" fill="#F6F3EC" transform="translate(0,0)"/>
<path d="" fill="#F4F2E7" transform="translate(0,0)"/>
<path d="" fill="#F3F1E8" transform="translate(0,0)"/>
<path d="" fill="#F5F0E8" transform="translate(0,0)"/>
<path d="" fill="#F4F2E8" transform="translate(0,0)"/>
<path d="" fill="#F4F0E6" transform="translate(0,0)"/>
<path d="" fill="#F4F1E9" transform="translate(0,0)"/>
<path d="" fill="#F5F2E8" transform="translate(0,0)"/>
<path d="" fill="#F5F3E8" transform="translate(0,0)"/>
<path d="" fill="#F9F3E8" transform="translate(0,0)"/>
</svg>